# xmcd
#
# Track frame offsets:
#	150
#	16873
#	28168
#	44158
#	58495
#	79998
#	96800
#	109680
#	126063
#	141773
#	153818
#	168788
#	183703
#	197080
#
# Disc length: 2834 seconds
#
# Revision: 0
# Processed by: cddbd v1.4PL0 Copyright (c) Steve Scherf et al.
# Submitted via: EasyCDDAExtractor 5.0.4.1
#
DISCID=c00b100e
DTITLE=Susan Marshall - My Own Time
DYEAR=1900
DGENRE=Country
TTITLE0=Are you sure hank done it this way
TTITLE1=Why can't you tell me why
TTITLE2=I used to hate honky tonks
TTITLE3=Someday, Someday
TTITLE4=Rock'n roll til the cows com home
TTITLE5=Behind the wire
TTITLE6=Now stop
TTITLE7=Special Consideration
TTITLE8=He's my friend
TTITLE9=Perfect love
TTITLE10=My own time
TTITLE11=Lipstick on your collar
TTITLE12=Talkin' too fast
TTITLE13=Don't play innocent with me
EXTD=
EXTT0=
EXTT1=
EXTT2=
EXTT3=
EXTT4=
EXTT5=
EXTT6=
EXTT7=
EXTT8=
EXTT9=
EXTT10=
EXTT11=
EXTT12=
EXTT13=
PLAYORDER=
